<svg xmlns="http://www.w3.org/2000/svg" viewBox="0 0 512 512" fill="#3498db">
    <!-- Background grid -->
    <path d="M100 100h300M100 180h300M100 260h300M100 340h300M100 100v300M180 100v300M260 100v300M340 100v300" stroke="#3498db" stroke-width="2" stroke-opacity="0.2"/>

    <!-- Main document shape -->
    <path d="M140 100c0-8 6-15 15-15h130l85 85v235c0 8-7 15-15 15H155c-8 0-15-7-15-15V100z" fill="none" stroke="#3498db" stroke-width="16"/>

    <!-- Folded corner -->
    <path d="M285 85v85h85" fill="none" stroke="#3498db" stroke-width="16" stroke-linejoin="round"/>

    <!-- Document content lines -->
    <path d="M180 200h150M180 240h150M180 280h150M180 320h90" stroke="#2980b9" stroke-width="12" stroke-linecap="round"/>
</svg>
